<svg xmlns="http://www.w3.org/2000/svg" viewBox="0 0 120 30" fill="none"><path id="gradientPath" d="M14.124 13.467a3.12 3.12 0 00-1.917-1.899L2.09 8.011c-3.315-1.156-2.469-6.06 1.036-6.06h17.49a3.106 3.106 0 013.109 3.108v17.49c0 3.506-4.904 4.334-6.06 1.037l-3.54-10.118z" fill="url(#gradientLight)"></path><path fill-rule="evenodd" clip-rule="evenodd" d="M22.791 2.849a3.097 3.097 0 00-2.175-.881H3.126c-3.506 0-4.335 4.904-1.037 6.06l10.118 3.54a3.16 3.16 0 011.192.742l9.393-9.461z" fill="#fff"></path><path d="M42.389 23.258c-1.848 0-3.212-.329-4.04-.967-1.123-.864-1.693-2.452-1.693-4.714v-5.698a.236.236 0 00-.242-.242h-1.588a.737.737 0 01-.742-.742v-2.71c0-.415.328-.743.742-.743h1.588a.236.236 0 00.242-.242V4.852c0-.328.225-.622.535-.725l2.884-.864a.75.75 0 01.967.725v3.195c0 .138.103.241.241.241h2.331c.415 0 .743.328.743.743v2.71a.737.737 0 01-.743.743h-2.33a.236.236 0 00-.242.242v5.698c0 .932.5 1.295.932 1.45.397.138.967.207 1.727.207.362 0 .656.294.656.656v2.573a.727.727 0 01-.69.742c-.432.052-.864.07-1.279.07zM54.44 23.586c-2.313 0-4.299-.812-5.905-2.4-1.605-1.589-2.417-3.575-2.417-5.888 0-2.314.812-4.3 2.417-5.888 1.606-1.588 3.592-2.4 5.906-2.4 2.313 0 4.299.812 5.904 2.4 1.606 1.588 2.418 3.574 2.418 5.888 0 2.313-.812 4.3-2.417 5.888-1.606 1.588-3.592 2.4-5.905 2.4zm0-12.346c-1.105 0-2.054.38-2.814 1.14-.76.76-1.14 1.726-1.14 2.9 0 1.175.38 2.159 1.14 2.901.76.76 1.692 1.14 2.815 1.14 1.104 0 2.054-.38 2.814-1.14.76-.76 1.14-1.726 1.14-2.9 0-1.175-.38-2.159-1.14-2.901-.76-.76-1.692-1.14-2.815-1.14zM92.201 22.809l-2.727-3.868c-.104-.138-.311-.138-.398 0l-2.728 3.868a.708.708 0 01-.604.31h-3.142c-.605 0-.967-.69-.605-1.174l4.697-6.665a.265.265 0 000-.276l-4.507-6.388a.743.743 0 01.605-1.174h3.142c.242 0 .466.12.604.31l2.538 3.592c.104.138.311.138.398 0l2.538-3.592a.708.708 0 01.604-.31h3.142c.605 0 .967.69.605 1.174l-4.507 6.388a.265.265 0 000 .277l4.697 6.664c.345.501 0 1.174-.605 1.174h-3.142a.778.778 0 01-.605-.31zM101.681 17.3c.587 1.607 1.968 2.418 4.092 2.418 1.105 0 2.037-.294 2.779-.846a.73.73 0 01.829-.052l2.245 1.295c.432.242.501.829.155 1.192-1.502 1.519-3.539 2.296-6.077 2.296-2.642 0-4.783-.794-6.354-2.348-1.572-1.554-2.366-3.557-2.366-5.94 0-2.365.794-4.351 2.348-5.922 1.554-1.571 3.574-2.366 6.026-2.366 2.279 0 4.196.795 5.698 2.366 1.52 1.571 2.279 3.574 2.279 5.94 0 .362-.017.707-.052 1.035a.775.775 0 01-.742.674h-10.636c-.173-.052-.294.103-.224.259zm3.643-6.491c-1.986 0-3.246.915-3.747 2.728-.035.138.069.293.224.293h6.941c.156 0 .259-.138.225-.293-.501-1.813-1.727-2.728-3.643-2.728zM115.615 22.377V.742c0-.414.328-.742.742-.742h2.883c.415 0 .743.328.743.742v21.635a.737.737 0 01-.743.742h-2.883a.737.737 0 01-.742-.742zM79.2 9.376c-1.45-1.589-3.229-2.4-5.284-2.4-1.674 0-3.056.466-4.092 1.364-.138.12-.362.034-.362-.156a.737.737 0 00-.743-.742h-2.883a.737.737 0 00-.742.742v20.65c0 .415.328.743.742.743h2.883a.737.737 0 00.743-.742v-6.406c0-.207.242-.328.397-.19 1.036.88 2.4 1.33 4.058 1.33 2.054 0 3.833-.812 5.283-2.4 1.468-1.59 2.21-3.575 2.21-5.906-.017-2.313-.76-4.299-2.21-5.887zm-3.022 8.805c-.76.76-1.692 1.14-2.814 1.14-1.105 0-2.055-.38-2.814-1.14-.76-.76-1.14-1.726-1.14-2.9 0-1.175.38-2.159 1.14-2.901.76-.76 1.692-1.14 2.814-1.14 1.105 0 2.055.38 2.814 1.14.76.76 1.14 1.726 1.14 2.9-.017 1.175-.397 2.159-1.14 2.901z" fill="#fff"></path><defs><linearGradient id="gradientLight" x1="11.862" y1="25.688" x2="11.862" y2="-14.465" gradientUnits="userSpaceOnUse"><stop stop-color="#fff"></stop><stop offset="1" stop-color="#fff" stop-opacity=".262"></stop><stop offset="1" stop-color="#fff" stop-opacity=".25"></stop></linearGradient></defs></svg>