<svg xmlns="http://www.w3.org/2000/svg" width="180" viewBox="0 0 710 220" fill="currentColor" stroke="none" stroke-linecap="round" stroke-linejoin="round"><path fill="#fff" d="M125.4,3.3C95.1,3.3,69,24,61.6,52.6C28.9,56.5,3.5,84.4,3.5,118.1c0,36.3,29.6,65.9,65.9,65.9 c12.6,0,24.9-3.6,35.4-10.4c1.7-1.1,3.3-2.2,4.8-3.4V201c0,8.6,7,15.7,15.7,15.7s15.7-7,15.7-15.7v-30.7c1.5,1.2,3.2,2.3,4.8,3.4 c10.6,6.8,22.8,10.4,35.4,10.4c36.3,0,65.9-29.6,65.9-65.9c0-33.7-25.4-61.5-58-65.4C181.7,24,155.7,3.3,125.4,3.3L125.4,3.3z"></path><path fill="#0EC43E" d="M125.4,120.4c-28.2,0-51.2-23-51.2-51.2c0-28.2,23-51.2,51.2-51.2c28.2,0,51.2,23,51.2,51.2 C176.6,97.4,153.6,120.4,125.4,120.4z"></path><path fill="#2CF226" d="M69.4,169.3c-28.2,0-51.2-23-51.2-51.2c0-28.2,23-51.2,51.2-51.2c28.2,0,51.2,23,51.2,51.2 C120.6,146.3,97.6,169.3,69.4,169.3z"></path><path fill="#2CF226" d="M181.2,169.3c-28.2,0-51.2-23-51.2-51.2c0-28.2,23-51.2,51.2-51.2c28.2,0,51.2,23,51.2,51.2 C232.4,146.3,209.5,169.3,181.2,169.3z"></path><path fill="#E0FF23" d="M130.1,120.2c0-0.7-0.1-1.4-0.1-2.1c0-26.5,20.5-48.5,46.5-50.9c0,0.7,0.1,1.4,0.1,2.1 C176.6,95.8,156.1,117.8,130.1,120.2z"></path><path fill="#E0FF23" d="M120.5,120.2c-25.9-2.5-46.3-24.5-46.3-50.9c0-0.7,0-1.3,0.1-2c25.9,2.5,46.3,24.5,46.3,50.9 C120.6,118.8,120.6,119.4,120.5,120.2z"></path><path fill="#000" d="M181.2,62.2c-0.1,0-0.3,0-0.4,0c-3.5-27.6-26.9-48.9-55.4-48.9c-28.5,0-52,21.3-55.4,48.9c-0.2,0-0.4,0-0.5,0 c-30.9,0-55.9,25-55.9,55.9c0,30.9,25,55.9,55.9,55.9c22.1,0,41.2-12.9,50.2-31.6V201c0,3.1,2.5,5.7,5.7,5.7s5.7-2.5,5.7-5.7 v-58.5c9,18.7,28.1,31.6,50.2,31.6c30.9,0,55.9-25,55.9-55.9C237.2,87.2,212.1,62.2,181.2,62.2z M125.4,24.7 c22.6,0,41.3,16.9,44.1,38.8c-23.6,5-41.6,25-43.9,49.5c-0.1,0-0.2,0-0.3,0c-0.1,0-0.2,0-0.3,0c-2.2-24.5-20.2-44.4-43.8-49.5 C84.1,41.6,102.8,24.7,125.4,24.7z M169.5,75.2c-2.4,17.8-15.4,32.3-32.4,37C139.5,94.3,152.5,79.8,169.5,75.2z M113.5,112.1 C96.6,107.4,83.7,93,81.3,75.2C98.2,79.9,111.1,94.4,113.5,112.1z M69.4,162.7c-24.6,0-44.6-20-44.6-44.6s20-44.6,44.6-44.6 c0.1,0,0.2,0,0.3,0c1.9,24.9,20,45.2,43.9,50.3C110.7,145.7,92,162.7,69.4,162.7z M181.2,162.7c-22.6,0-41.3-16.9-44.1-38.8 c23.9-5.1,42.1-25.4,44-50.3c0.1,0,0.1,0,0.2,0c24.6,0,44.6,20,44.6,44.6S205.8,162.7,181.2,162.7z"></path><path d="M388,114.6l45.4,52.2c1.9,2.2,2.2,2.9,2.2,3.6c0,0.7-0.5,1.7-2.2,1.7h-32.6c-2.2,0-3.9-0.2-5.6-2.2l-29.5-33.8L349.6,152 v17.2c0,1.4-1.5,2.9-2.9,2.9h-25.1c-1.5,0-2.9-1.5-2.9-2.9V71.1c0-1.4,1.4-2.9,2.9-2.9h25.1c1.5,0,2.9,1.5,2.9,2.9v42.3h0.5 c0,0,4.8-5.3,10.9-11.1l32.4-31.9c1.7-1.7,3.1-2.2,5.6-2.2h32.9c1,0,1.5,0.7,1.5,1.2c0,0.7-0.2,1.2-1.7,2.7L388,114.6z"></path><path d="M482.3,169.2c0,1.4-1.5,2.9-2.9,2.9h-25.1c-1.5,0-2.9-1.5-2.9-2.9V71.1c0-1.4,1.4-2.9,2.9-2.9h25.1c1.5,0,2.9,1.5,2.9,2.9 V169.2z"></path><path d="M510.3,172.1c-1.5,0-2.9-1.5-2.9-2.9V71.1c0-1.4,1.4-2.9,2.9-2.9h84.1c1.5,0,3.4,1.9,3.4,3.4v19.3c0,1.5-1.9,3.4-3.4,3.4 h-56.1v18.4h50.5c1.4,0,3.4,1.9,3.4,3.4v19.3c0,1.5-1.9,3.4-3.4,3.4h-50.5v30.4c0,1.4-1.5,2.9-2.9,2.9H510.3z"></path><path d="M619,172.1c-1.5,0-2.9-1.5-2.9-2.9V71.1c0-1.4,1.4-2.9,2.9-2.9h84.1c1.5,0,3.4,1.9,3.4,3.4v19.3c0,1.5-1.9,3.4-3.4,3.4 h-56.1v18.4h50.5c1.4,0,3.4,1.9,3.4,3.4v19.3c0,1.5-1.9,3.4-3.4,3.4h-50.5v30.4c0,1.4-1.5,2.9-2.9,2.9H619z"></path></svg>